<svg xmlns="http://www.w3.org/2000/svg" viewBox="0 0 70.51 25.06">
    <g id="Layer_2" data-name="Layer 2">
        <g id="Layer_1-2" data-name="Layer 1">
            <path fill="currentColor" stroke-width="var(--icon-stroke-width)" d="M.67,13.49a1,1,0,0,1,0-1.92H65.28A17.91,17.91,0,0,1,60,5.43h0A15.4,15.4,0,0,1,58.42.87h0a.69.69,0,0,0,0-.2,1.15,1.15,0,0,1,0-.14h0c0-.35.32-.53,1-.53h0a1.43,1.43,0,0,1,.74.12,1,1,0,0,1,.27.55h0a8.89,8.89,0,0,0,.53,2h0a14.7,14.7,0,0,0,3.5,5.74A14.16,14.16,0,0,0,70.08,12h0a.54.54,0,0,1,0,1.06h0a14.16,14.16,0,0,0-5.71,3.62,14.7,14.7,0,0,0-3.5,5.74h0a16.44,16.44,0,0,0-.53,1.92h0a1,1,0,0,1-.27.6,1.43,1.43,0,0,1-.74.12h0c-.67,0-1-.18-1-.53h0a11,11,0,0,1,.29-1.2h0a17.09,17.09,0,0,1,6.67-9.84H.67Z"/>
        </g>
    </g>
</svg>